<?xml version="1.0" encoding="iso-8859-1"?>
<!-- Generator: Adobe Illustrator 16.0.0, SVG Export Plug-In . SVG Version: 6.00 Build 0)  -->
<!DOCTYPE svg PUBLIC "-//W3C//DTD SVG 1.1//EN" "http://www.w3.org/Graphics/SVG/1.1/DTD/svg11.dtd">
<svg version="1.1" id="Capa_1" xmlns="http://www.w3.org/2000/svg" xmlns:xlink="http://www.w3.org/1999/xlink" x="0px" y="0px"
	 width="411.202px" height="411.203px" viewBox="0 0 411.202 411.203" style="enable-background:new 0 0 411.202 411.203;"
	 xml:space="preserve">
<g>
	<path d="M410.648,155.719c-1.224-12.24-10.404-20.808-22.032-23.868c-6.731-1.836-15.3,0-22.644,1.224
		c-18.972,2.448-37.944,3.672-56.916,4.896c-68.544,3.672-136.476-4.896-204.408-4.896c0,0,0,0-0.612,0s-1.224,0-1.836,0
		c-5.508,0-7.956,4.284-7.956,7.956l0,0c-1.224,0.612-1.836,1.836-1.836,3.672c-6.732,53.856-27.54,104.04-39.168,156.671
		c-1.836,9.792-4.284,18.972-8.568,28.152c-6.732-2.448-9.18-7.345-7.956-14.076c0-4.284-0.612-7.956,0-12.24
		c0-26.316,6.732-53.244,13.464-78.948c6.732-27.539,15.912-54.467,23.868-82.007c7.344-26.316,60.588-20.808,81.396-19.584
		c64.872,2.448,129.132-0.612,194.004-1.224c3.672,0,6.732-2.448,7.345-5.508c3.672-0.612,6.119-4.284,4.896-8.568
		c-10.404-39.168-57.528-33.048-88.74-28.764c-32.436,4.284-63.647,3.06-95.472-1.836c-13.464-1.836-13.464-23.256-22.644-33.66
		c-20.196-22.032-81.396-9.792-105.876-5.508c-23.256,4.284-33.66,18.36-36.108,37.332c-2.448,1.224-3.06,4.284-0.612,6.12
		c0,7.956,0.612,15.912,2.448,24.48l0,0c0,4.284,0,8.568,0,12.852c-1.224,7.956-1.836,15.912-0.612,23.256
		c-1.224,41.004-4.284,81.396-9.792,122.399c-4.284,33.048-13.464,89.352,22.644,108.324c32.436,17.136,80.172,3.672,114.444,0
		c59.364-6.732,119.34,6.12,179.316-4.896c38.556-7.344,54.468-50.184,63.647-83.231c5.509-20.196,9.181-41.004,14.076-61.2
		C403.305,201.007,413.709,178.363,410.648,155.719z M89.349,96.967c1.224-0.612,1.836-1.224,3.06-1.836
		c0,0.612,0,0.612,0.612,1.224c-1.224,1.224-2.448,2.448-2.448,4.284c-0.612,0-1.224,0-1.836,0
		C88.736,99.415,89.349,98.191,89.349,96.967z M107.708,292.806h-0.612c4.284-13.464,7.956-26.928,12.24-40.392
		C115.053,265.878,111.38,279.342,107.708,292.806z M152.997,320.346c-3.672,0-6.732,0-10.404-0.611
		c5.508-0.612,11.628-0.612,17.136-0.612C157.281,319.123,154.833,319.735,152.997,320.346z M307.221,262.819
		c0,0-0.612,0-0.612-0.612c2.448-5.508,4.896-11.016,7.344-16.524C311.505,251.191,309.057,257.31,307.221,262.819z"/>
</g>
<g>
</g>
<g>
</g>
<g>
</g>
<g>
</g>
<g>
</g>
<g>
</g>
<g>
</g>
<g>
</g>
<g>
</g>
<g>
</g>
<g>
</g>
<g>
</g>
<g>
</g>
<g>
</g>
<g>
</g>
</svg>
