<?xml version="1.0" encoding="iso-8859-1"?>
<!-- Generator: Adobe Illustrator 16.0.0, SVG Export Plug-In . SVG Version: 6.00 Build 0)  -->
<!DOCTYPE svg PUBLIC "-//W3C//DTD SVG 1.1//EN" "http://www.w3.org/Graphics/SVG/1.1/DTD/svg11.dtd">
<svg version="1.1" id="Capa_1" xmlns="http://www.w3.org/2000/svg" xmlns:xlink="http://www.w3.org/1999/xlink" x="0px" y="0px"
	 width="388.172px" height="388.172px" viewBox="0 0 388.172 388.172" style="enable-background:new 0 0 388.172 388.172;"
	 xml:space="preserve">
<g>
	<path d="M328.413,245.597c1.224-2.447,1.224-6.119-1.225-8.568c-24.479-23.256-47.735-47.736-71.604-70.992
		c-16.524-15.912-42.229-44.676-65.484-50.796c-15.3-4.284-36.107,23.868-45.287,31.824c-26.929,22.644-51.408,50.796-70.992,79.56
		c-0.612,1.225-1.225,2.449-0.612,3.672v0.613c-2.448,26.928-6.12,53.855-6.732,81.395c0,11.018-2.447,39.781,9.181,47.125
		c0.611,1.836,2.448,3.061,4.896,3.061c12.24,1.223,25.093,1.836,37.332,2.447c11.017,0.611,24.48,1.836,34.272-4.283l0,0
		c3.06,1.223,6.731-0.613,7.956-3.672c4.896-16.525,1.836-37.332,3.06-54.469c1.225-15.301,1.836-32.436-1.836-47.736
		c12.853,1.836,25.704,3.061,37.944,4.285c9.792,1.223,23.256,3.059,34.271,1.836c0,15.912,0,31.822,0,47.734
		c0,8.568-0.612,17.748-1.224,26.316c-0.612,6.732-3.672,13.465-1.836,20.197c0,0.611,0.611,1.223,1.224,1.836
		c-3.06,3.059-1.224,9.791,4.284,10.402c16.523,1.225,33.048,2.449,49.572,3.061c11.016,0.611,28.151,1.836,36.107-6.732
		c2.448,0,4.284-1.836,5.508-4.283C339.428,325.769,332.084,280.481,328.413,245.597z"/>
	<path d="M386.552,202.757c-11.016-11.016-25.704-18.36-37.332-28.764c-13.464-12.24-25.704-26.316-37.944-39.78
		c-36.72-39.78-70.991-80.784-112.607-115.668c-3.672-3.06-8.568,0-8.568,3.672c-22.644,1.836-52.632,44.676-64.871,57.528
		c-37.944,40.392-77.725,82.62-123.012,114.444c-3.672,2.447-2.448,7.957,1.224,9.18c7.344,10.404,17.136,18.973,26.315,27.541
		c1.836,1.836,4.284,2.447,6.732,1.836c2.448,1.223,5.508,1.223,7.956-1.225c18.972-17.137,34.884-36.72,52.632-55.08
		c31.824-32.436,71.604-55.692,99.756-91.188l0,0c31.824,26.316,63.036,53.856,91.8,83.232c18.36,18.36,38.556,52.021,63.648,60.589
		l0,0c0.611,1.223,2.447,1.836,3.672,1.836c4.896,0.611,9.18-1.836,13.464-3.672c4.896-2.449,8.567-6.732,11.628-11.018
		c0.612-0.611,0.612-1.836,1.224-2.447l0,0C387.165,213.161,390.224,207.04,386.552,202.757z"/>
</g>
<g>
</g>
<g>
</g>
<g>
</g>
<g>
</g>
<g>
</g>
<g>
</g>
<g>
</g>
<g>
</g>
<g>
</g>
<g>
</g>
<g>
</g>
<g>
</g>
<g>
</g>
<g>
</g>
<g>
</g>
</svg>
