<?xml version="1.0" encoding="iso-8859-1"?>
<!-- Generator: Adobe Illustrator 16.0.0, SVG Export Plug-In . SVG Version: 6.00 Build 0)  -->
<!DOCTYPE svg PUBLIC "-//W3C//DTD SVG 1.1//EN" "http://www.w3.org/Graphics/SVG/1.1/DTD/svg11.dtd">
<svg version="1.1" id="Capa_1" xmlns="http://www.w3.org/2000/svg" xmlns:xlink="http://www.w3.org/1999/xlink" x="0px" y="0px"
	 width="400.279px" height="400.279px" viewBox="0 0 400.279 400.279" style="enable-background:new 0 0 400.279 400.279;"
	 xml:space="preserve">
<g>
	<path d="M372.34,365.276c-9.792-22.644-26.928-41.615-43.452-59.363c-16.523-16.524-36.107-34.885-58.14-44.064
		c-2.448-1.224-10.404-3.06-17.136-3.672c17.748-14.688,30.6-34.884,38.556-56.916c10.404-1.836,19.584-11.628,22.644-22.032
		c1.837-5.508,1.225-12.24-2.447-17.136c-2.448-3.06-6.732-4.896-10.404-5.508c2.448-22.032,1.224-44.064-3.672-63.648
		c-16.524-72.828-82.62-113.22-154.224-82.62c-53.856,23.256-70.992,92.412-60.588,154.836c-2.448,0-4.284,1.224-6.12,3.06
		c-4.284,3.672-4.284,10.404-3.672,15.3c1.224,5.508,4.896,11.628,9.18,14.688c2.448,1.836,6.12,3.06,9.18,3.672
		c10.404,28.764,26.928,53.244,48.348,67.319c-36.72-6.12-128.52,88.128-114.444,126.072c0.612,2.448,2.448,3.672,4.896,3.672
		c0.612,0,1.224,0.612,1.836,0.612c52.02-0.612,103.428-0.612,155.448,0.612c56.916,1.224,114.444-11.629,170.748,0
		c3.672,0.611,6.732-1.225,7.956-3.673C380.296,394.041,375.401,372.621,372.34,365.276z M122.645,201.261c0,0-0.612,0-0.612-0.612
		c0-0.611,0-0.611,0-1.224c0-12.852,0.612-26.316,0.612-39.168c0-3.672,0.612-7.956,0.612-11.628
		C123.256,165.765,122.033,183.513,122.645,201.261z M199.756,245.937c-0.612,0.612-1.836,1.836-2.448,2.448
		c-1.224-1.224-3.06-1.836-4.284-3.06C195.473,245.325,197.92,245.325,199.756,245.937z M177.112,122.312
		c0,14.076-0.612,28.152-1.836,42.229C175.276,150.465,175.889,136.389,177.112,122.312z M153.856,333.453
		c-2.448-4.284-4.284-7.956-6.732-12.24c0-1.225-0.612-2.448-0.612-3.672c0-0.612,0-0.612,0-1.225
		c3.06,6.732,6.732,13.464,10.404,20.196C156.305,336.513,155.081,334.677,153.856,333.453z M155.081,276.537
		c12.24,4.896,25.704,6.119,40.392,3.672c1.835,1.224,3.671,1.836,6.12,1.224c12.853-1.836,24.48-6.12,34.884-11.628
		c3.673,37.944-6.731,80.172-33.659,107.712C178.949,349.977,152.632,313.257,155.081,276.537z"/>
</g>
<g>
</g>
<g>
</g>
<g>
</g>
<g>
</g>
<g>
</g>
<g>
</g>
<g>
</g>
<g>
</g>
<g>
</g>
<g>
</g>
<g>
</g>
<g>
</g>
<g>
</g>
<g>
</g>
<g>
</g>
</svg>
